<svg xmlns:xlink="http://www.w3.org/1999/xlink" width="18" height="18" viewBox="0 0 18 18" fill="none" xmlns="http://www.w3.org/2000/svg"><title>Alert icon</title><g id="Return Confirmation - Important Info Icon" fill="none"><path id="Combined-Shape" fill-rule="evenodd" clip-rule="evenodd" d="M0 9C0 13.9706 4.02944 18 9 18C13.9706 18 18 13.9706 18 9C18 4.02944 13.9706 0 9 0C4.02944 0 0 4.02944 0 9ZM16.3636 9C16.3636 13.0668 13.0668 16.3636 9 16.3636C4.93318 16.3636 1.63636 13.0668 1.63636 9C1.63636 4.93318 4.93318 1.63636 9 1.63636C13.0668 1.63636 16.3636 4.93318 16.3636 9ZM9 9.81818C8.58041 9.81818 8.23458 9.50233 8.18732 9.09542L8.18182 9V4.90909C8.18182 4.45722 8.54813 4.09091 9 4.09091C9.41959 4.09091 9.76542 4.40676 9.81268 4.81367L9.81818 4.90909V9C9.81818 9.45187 9.45187 9.81818 9 9.81818ZM8.18182 12.2727C8.18182 12.7246 8.54813 13.0909 9 13.0909C9.45187 13.0909 9.81818 12.7246 9.81818 12.2727C9.81818 11.8209 9.45187 11.4545 9 11.4545C8.54813 11.4545 8.18182 11.8209 8.18182 12.2727Z" fill="#D43F21"></path></g></svg>